<?xml version="1.0" encoding="UTF-8" standalone="no"?>
<svg
   version="1.1"
   width="4440.1318"
   height="1169.9574"
   id="svg45"
   sodipodi:docname="logo-dentallab.svg"
   inkscape:version="1.4.2 (f4327f4, 2025-05-13)"
   xmlns:inkscape="http://www.inkscape.org/namespaces/inkscape"
   xmlns:sodipodi="http://sodipodi.sourceforge.net/DTD/sodipodi-0.dtd"
   xmlns:xlink="http://www.w3.org/1999/xlink"
   xmlns="http://www.w3.org/2000/svg"
   xmlns:svg="http://www.w3.org/2000/svg">
  <sodipodi:namedview
     id="namedview1"
     pagecolor="#ffffff"
     bordercolor="#000000"
     borderopacity="0.25"
     inkscape:showpageshadow="2"
     inkscape:pageopacity="0.0"
     inkscape:pagecheckerboard="0"
     inkscape:deskcolor="#d1d1d1"
     inkscape:zoom="0.14431846"
     inkscape:cx="987.3997"
     inkscape:cy="800.31344"
     inkscape:window-width="1920"
     inkscape:window-height="1009"
     inkscape:window-x="-8"
     inkscape:window-y="-8"
     inkscape:window-maximized="1"
     inkscape:current-layer="svg45">
    <inkscape:page
       x="0"
       y="0"
       width="4440.1318"
       height="1169.9574"
       id="page2"
       margin="0"
       bleed="0" />
  </sodipodi:namedview>
  <defs
     id="defs45">
    <linearGradient
       id="swatch1"
       inkscape:swatch="solid">
      <stop
         style="stop-color:#002ac1;stop-opacity:1;"
         offset="0"
         id="stop1" />
    </linearGradient>
    <linearGradient
       inkscape:collect="always"
       xlink:href="#swatch1"
       id="linearGradient5"
       gradientUnits="userSpaceOnUse"
       gradientTransform="translate(-294.25381,-396.59213)"
       x1="592.4967"
       y1="1213.3835"
       x2="4741.3789"
       y2="1213.3835" />
  </defs>
  <path
     d="M 319.75701,0.00145743 C 284.06452,0.11104743 248.26213,7.6287674 213.20482,25.044607 131.62406,67.426597 65.655835,142.02529 36.574085,230.15176 c -1.60656,5.53375 -3.27576,11.04968 -5.00261,16.5471 C 5.8433553,305.30182 0.0629853,371.60723 0.0044953,434.97629 l 0.0123,6.8245 c 0.0184,20.4108 -0.4027,40.9809 2.05636,61.27 0.99304,6.3514 1.9585,12.7114 2.80193,19.0845 9.1882097,69.5838 25.8055097,138.00348 52.7318797,202.94258 l 4.74981,11.0874 c 26.3142,62.2353 57.549045,121.6826 92.692635,179.3606 5.59346,9.1531 11.15193,18.3238 16.64332,27.5384 15.33087,25.7475 29.61193,52.983 48.96788,75.92903 5.45165,6.42 10.25367,12.9117 14.76742,20.0226 22.71371,36.1433 49.80448,68.477 82.81958,95.7713 l 5.78418,4.6657 c 15.27293,13.3104 29.71527,23.725 48.54112,30.4846 l -5.08669,-4.1065 c -31.84586,-26.3273 -57.97641,-57.5109 -79.8857,-92.3741 -4.35367,-6.8589 -8.98563,-13.1203 -14.24407,-19.3129 -18.67036,-22.1331 -32.44833,-48.4062 -47.23624,-73.24143 -5.2969,-8.8883 -10.65874,-17.7355 -16.05405,-26.5644 -33.8987,-55.6349 -64.0216,-112.9743 -89.40369,-173.005 l -4.58772,-10.6967 C 90.102195,708.01757 74.075565,642.01817 65.212815,574.89919 c -0.81356,-6.1473 -1.74183,-12.2786 -2.69972,-18.4051 -2.37194,-19.5704 -1.96539,-39.4116 -1.9842,-59.0994 l -0.0123,-6.5839 c 0.0564,-61.1244 5.63186,-125.08223 30.44861,-181.60933 1.66567,-5.30275 3.27253,-10.62014 4.82221,-15.95785 C 123.839,208.23881 187.47396,136.28059 266.16501,95.399887 c 90.17451,-44.7971 185.45132,-21.70467 270.21937,23.756383 v -0.006 l 5.46531,2.86808 c 55.22545,29.06749 99.54181,71.77587 143.00761,115.9139 22.62409,-23.48085 56.94269,-69.23887 169.25919,-127.68688 l 5.9465,-3.10258 c 70.0344,-35.675993 144.25231,-46.124283 219.73621,-23.624123 42.6015,14.28259 76.9118,38.529143 109.8712,68.298913 l 6.217,5.5678 c 44.9254,42.47493 75.2839,101.53305 94.0756,162.53081 -15.8913,-83.49414 -51.1011,-172.18355 -112.8952,-230.607253 l -6.4459,-5.77208 c -34.1698,-30.86302 -69.7394,-55.99913 -113.9056,-70.80623 -78.25581,-23.32642 -155.19901,-12.49014957 -227.80521,24.49597 l -6.1633,3.21082 C 706.30659,101.03145 670.72656,148.47073 647.27157,172.81387 602.20956,127.05492 556.26244,82.777857 499.00916,52.642907 l -5.66425,-2.97029 C 438.41967,20.216067 379.23759,-0.18121257 319.75089,0.00121743 Z"
     style="fill:#002ac1;fill-opacity:1;stroke-width:3.07852"
     id="path45" />
  <text
     xml:space="preserve"
     style="font-size:605.934px;text-align:start;writing-mode:lr-tb;direction:ltr;text-anchor:start;fill:url(#linearGradient5);fill-opacity:1;stroke:#000000;stroke-width:0;stroke-linecap:round;stroke-linejoin:round;stroke-dasharray:none"
     x="256.15579"
     y="945.24939"
     id="text1"><tspan
       sodipodi:role="line"
       id="tspan1"
       x="256.15579"
       y="945.24939"
       style="font-style:normal;font-variant:normal;font-weight:normal;font-stretch:normal;font-family:'Adoria DEMO';-inkscape-font-specification:'Adoria DEMO';fill:url(#linearGradient5);fill-opacity:1;stroke-width:0;stroke-dasharray:none">Lab Admin</tspan></text>
</svg>
